<svg width="20" height="21" viewBox="0 0 20 21" fill="none" xmlns="http://www.w3.org/2000/svg">
<path d="M8.20375 9.77323L8.20285 9.77407L2.47596 15.1094C1.42727 16.0863 1.41435 17.7436 2.44767 18.7368C3.40503 19.657 4.91513 19.667 5.8846 18.7596L9.96299 14.9421L14.0974 18.7844C15.0564 19.6755 16.5405 19.6755 17.4994 18.7844C18.563 17.7959 18.5631 16.1121 17.4994 15.1237L11.7545 9.78472L11.7394 9.77104C11.365 9.43703 10.7115 9 9.97292 9C9.24738 9 8.59417 9.4104 8.20375 9.77323Z" fill="#5AA9E6" stroke="black" stroke-width="2" stroke-linejoin="round"/>
<path d="M11.8339 12.1337L11.8347 12.1329L17.6755 6.08687C18.6304 5.09842 18.6426 3.53487 17.7032 2.53165C16.6932 1.45296 14.9852 1.44164 13.961 2.50686L10.0369 6.58799L6.05599 2.47741C5.04158 1.42994 3.36156 1.42994 2.34715 2.47741C1.37771 3.47843 1.37772 5.06819 2.34715 6.06921L8.20795 12.121L8.22229 12.1355C8.42984 12.3412 8.68453 12.5448 8.96885 12.7023C9.24418 12.8548 9.61207 13 10.0271 13C10.7917 13 11.4558 12.5241 11.8339 12.1337Z" fill="#5AA9E6" stroke="black" stroke-width="2" stroke-linejoin="round"/>
</svg>
