<svg width="44" height="48" viewBox="0 0 44 48" fill="none" xmlns="http://www.w3.org/2000/svg">
<path d="M33.8698 46.25H9.2063C7.64722 43.589 5.36405 39.289 3.63265 35.1181C1.95559 31.0781 0.796218 27.1592 1.31398 24.9683C1.70086 23.3313 5.65483 19.9917 12.4948 19.7298H17.4275V15.4735H11.8371V6.96079H17.7564V1.72223H25.6487V6.96079H30.9103V15.4735H25.9776V19.7298H32.2256C35.1852 20.2755 41.3675 22.0871 42.4198 24.9683C42.9724 26.4812 41.4939 30.6482 39.4889 35.1181C37.6756 39.1607 35.4315 43.4512 33.8698 46.25Z" fill="black"/>
<path d="M42.4198 24.9683C41.3675 22.0871 35.1852 20.2755 32.2256 19.7298H25.9776M42.4198 24.9683H1.31398M42.4198 24.9683C42.9724 26.4812 41.4939 30.6482 39.489 35.1181M1.31398 24.9683C1.70086 23.3313 5.65483 19.9917 12.4948 19.7298H17.4275M1.31398 24.9683C0.796218 27.1592 1.95559 31.0781 3.63265 35.1181M17.4275 19.7298V15.4735H11.8372V6.96079H17.7564V1.72223H25.6487V6.96079H30.9103V15.4735H25.9776V19.7298M17.4275 19.7298H25.9776M3.63265 35.1181C5.36405 39.289 7.64722 43.589 9.2063 46.25H33.8698C35.4315 43.4512 37.6756 39.1607 39.489 35.1181M3.63265 35.1181C5.99881 36.0016 12.2154 37.2384 18.1524 35.1181M39.489 35.1181C36.18 35.6482 28.8451 36.3903 25.9776 35.1181" stroke="white" stroke-width="2.12037" stroke-linecap="round" stroke-linejoin="round"/>
</svg>
