<svg width="822" height="530" viewBox="0 0 822 530" fill="none" xmlns="http://www.w3.org/2000/svg">
<path d="M56.3511 329.213C97.0185 329.213 103.349 356.064 101.431 369.49C94.7166 387.391 77.8358 421.851 64.0242 416.48C50.2126 411.11 33.9712 366.294 27.5769 344.557C6.15621 328.573 -18.078 295.648 56.3511 291.812M142.673 297.566C169.15 288.418 218.223 291.335 268.32 337.976M322.503 512.733C357.819 515.951 362.569 499.316 360.398 490.322C350.95 464.58 340.87 442 330.392 422.234M322.503 512.733C321.416 512.634 320.3 512.516 319.155 512.379C323.95 477.856 313.208 419.166 231.873 460.594L123.491 393.465M322.503 512.733C305.721 523.484 265.827 536.354 240.505 501.83M330.392 422.234C310.586 384.871 289.363 357.566 268.32 337.976M330.392 422.234L360.398 419.112M369.03 329.213H440.965C561.467 344.244 624.458 357.039 649.098 367.756M369.03 329.213L584.836 291.812C583.557 233.634 558.364 128.401 467.821 172.898C440.326 116.318 409.122 3.73319 504.268 6.03475C599.415 8.33632 596.345 82.7536 557.98 130.703M369.03 329.213L268.32 337.976M369.03 329.213C414.429 314.828 454.201 287.209 250.097 291.812L240.505 287.017C287.823 284.14 381.115 264.961 375.744 211.258C381.179 166.185 374.976 75.0817 306.686 71.2458M649.098 367.756C680.214 381.288 650.17 391.506 597.554 398.726M649.098 367.756L721.033 380.25M802.56 153.719C810.233 143.745 816.308 102.253 815.988 86.5895L792.01 71.2458L774.745 107.687L755.562 71.2458L721.033 92.3435C732.543 48.8695 744.82 -21.9676 701.851 42.4762C658.881 106.92 735.101 153.079 778.582 168.103L745.971 308.115L649.098 303.32L778.582 357.982L760.358 367.756C817.139 395.521 768.031 389.431 736.38 382.916L721.033 380.25M659.649 269.756L701.851 168.103L736.38 206.463L693.218 220.847L774.745 257.289L705.687 265.92M451.516 206.463L418.905 280.305M485.085 51.1071V119.195L496.595 86.5895H504.268L516.737 42.4762L530.165 119.195M566.612 402.392L553.184 367.756L516.737 382.916L504.268 357.982L467.821 382.916V357.982L418.905 393.465L428.128 344.557L382.269 398.292V344.557L356.853 398.292L352.432 349.117H306.686L338.337 364.588L325.359 380.611L339.724 391.109V406.58M566.612 402.392L593.468 373.326M566.612 402.392C563.769 402.685 560.89 402.971 557.98 403.25M566.612 402.392C577.525 401.269 587.918 400.048 597.554 398.726M306.686 71.2458C338.337 52.3857 400.873 51.4907 397.804 198.791C436.169 53.7922 353.044 38.0009 306.686 48.2301V71.2458ZM261.606 254.412C257.77 232.355 268.32 214.135 282.707 202.627C294.217 193.42 306.046 166.185 310.522 153.719L268.32 179.611L266.402 189.201C256.491 194.635 237.053 199.558 238.587 175.775C240.122 151.992 246.9 141.571 250.097 139.334C253.294 123.67 262.566 90.2337 274.075 81.7946L278.871 48.2301L286.544 59.7379M281.709 120.925L284.626 114.4M338.337 162.349C336.419 181.849 329.13 223.533 315.318 234.273M321.073 186.324H346.97M306.686 213.176L338.337 228.519M69.5402 280.305L84.4584 302.705L108.217 284.472L130.87 311.546M122.03 194.963C119.82 181.928 100.482 152.445 91.0887 139.334C110.095 139.334 136.948 157.266 147.999 166.232M122.03 194.963C124.24 207.999 104.533 224.706 94.4038 231.43L108.217 254.412C117.223 246.751 139.8 228.519 144.683 228.519M122.03 194.963H139.158M144.683 228.519C150.788 228.519 261.819 294.417 182.808 198.278M144.683 228.519V211.258M182.808 198.278L193.858 147.446L147.999 166.232M182.808 198.278L160.154 202.627M147.999 166.232L153.524 186.324M59.5948 364.588C62.91 364.173 69.5402 364.572 69.5402 369.49M268.32 480.065C274.395 479.648 285.777 481.116 282.707 490.322M398.844 501.83C463.49 512.624 567.143 516.311 464.595 444.704C457.964 440.074 442.273 446.255 461.28 461.832M470.12 469.015C480.618 480.065 494.431 498.299 463.49 486.143M452.992 486.143C443.415 486.512 422.271 486.364 414.315 482.828M525.725 499.956C596.264 503.367 707.948 496.314 588.161 451.334C583.188 449.467 575.895 455.533 597.554 470.12M602.526 474.54L612.472 483.381M575.453 472.33C592.028 481.17 597.001 488.353 566.612 486.143M655.768 499.956C712.125 501.798 813.237 522.61 743.619 406.58C740.568 401.495 738.457 434.98 745.971 475.645M724.834 477.855C725.754 473.988 727.044 458.738 724.834 455.202C722.623 451.666 723.913 432.548 724.834 429.786M669.581 483.381C671.423 482.091 683.963 484.479 691.682 481.17C699.417 477.855 709.915 483.381 709.915 483.381M507.692 407.269C485.347 408.748 462.594 409.896 440.965 410.727L428.128 412.063M507.692 407.269L530.165 449.124L557.98 403.25M507.692 407.269C524.932 406.128 541.929 404.791 557.98 403.25M597.554 398.726L649.098 451.334L655.768 418.735L690.025 436.416L693.218 410.727L714.888 406.58L721.033 380.25M360.398 419.112L382.269 456.859L398.844 444.704L424.261 451.334L428.128 412.063M360.398 419.112L428.128 412.063M617.497 228.519C627.816 226.895 643.861 208.406 625.49 147.446C607.119 86.4858 633.574 30.8571 649.098 10.6628M234.751 81.7946L239.546 91.3845L250.097 71.2458V58.779L234.751 81.7946ZM158.497 317.071C179.476 321.758 224.864 333.816 238.587 344.557C252.31 355.297 217.064 364.498 197.726 367.756L158.497 317.071ZM222.037 382.916L257.398 367.756C262.638 372.687 274.267 386.519 278.871 402.392C283.475 418.266 242.9 396.022 222.037 382.916Z" stroke="black" stroke-opacity="0.1" stroke-width="10.6579"/>
</svg>
