<svg width="20" height="22" viewBox="0 0 20 22" fill="none" xmlns="http://www.w3.org/2000/svg">
<path d="M3.33333 7.15385L2.5 4.07692H17.5L16.6667 7.15385H15.8333C15.6317 9.38754 14.7566 13.7292 12.7619 17.3538C12.5631 17.7149 12.3532 18.0689 12.1318 18.4131C11.7858 18.9507 11.4117 19.4641 11.0076 19.9426C10.4751 20.5733 9.52488 20.5733 8.99238 19.9426C8.58832 19.4641 8.21416 18.9507 7.86822 18.4131C7.64678 18.0689 7.4369 17.7149 7.23814 17.3538C5.24336 13.7292 4.36832 9.38754 4.16667 7.15385H3.33333Z" fill="white"/>
<path d="M1 1L1.66667 4.07692H2.5M19 1L18.3333 4.07692H17.5M2.5 4.07692L3.33333 7.15385H4.16667M2.5 4.07692H17.5M17.5 4.07692L16.6667 7.15385H10H9.16667M4.16667 7.15385C4.36832 9.38754 5.24336 13.7292 7.23814 17.3538M4.16667 7.15385H7.08333M15.8333 7.15385C15.6317 9.38754 14.7566 13.7292 12.7619 17.3538M7.23814 17.3538C7.4369 17.7149 7.64678 18.0689 7.86822 18.4131C8.21416 18.9507 8.58832 19.4641 8.99238 19.9426C9.52488 20.5733 10.4751 20.5733 11.0076 19.9426C11.4117 19.4641 11.7858 18.9507 12.1318 18.4131C12.3532 18.0689 12.5631 17.7149 12.7619 17.3538M7.23814 17.3538C8.33333 16.9076 10.9713 16.2829 12.7619 17.3538M7.08333 7.15385V11M7.08333 7.15385H9.16667M9.16667 7.15385V9.46154" stroke="black" stroke-width="1.58333" stroke-linecap="round"/>
<path d="M3.33333 7.15383L2.5 4.0769H17.5L16.6667 7.15383H10H9.16667H7.08333H4.16667H3.33333Z" fill="#0029FF" stroke="black" stroke-width="1.58333" stroke-linecap="round"/>
<path d="M8.99252 19.9426C8.58846 19.4641 8.2143 18.9507 7.86835 18.4131C7.64692 18.0689 7.43704 17.7149 7.23828 17.3538C8.33347 16.9076 10.9715 16.2829 12.762 17.3538C12.5632 17.7149 12.3534 18.0689 12.1319 18.4131C11.786 18.9507 11.4118 19.4641 11.0078 19.9426C10.4753 20.5733 9.52501 20.5733 8.99252 19.9426Z" fill="black" stroke="black" stroke-width="1.58333" stroke-linecap="round"/>
</svg>
