<svg width="24" height="22" viewBox="0 0 24 22" fill="none" xmlns="http://www.w3.org/2000/svg">
<path d="M11.2169 21H7.87823C7.44587 21 7.03178 20.8257 6.72961 20.5164L2.09668 15.775C1.48694 15.151 1.48694 14.1544 2.09668 13.5303L8.1383 7.34731L13.1918 2.17551C13.8218 1.53074 14.859 1.53074 15.489 2.17551L21.8916 8.72792C22.506 9.35669 22.5006 10.3626 21.8796 10.9848L16.784 16.0898L12.3535 20.5286C12.0523 20.8304 11.6433 21 11.2169 21Z" fill="white"/>
<path d="M8.1383 7.34731L2.09668 13.5303C1.48694 14.1544 1.48694 15.151 2.09668 15.775L6.72961 20.5164C7.03178 20.8257 7.44587 21 7.87823 21H11.2169C11.6433 21 12.0523 20.8304 12.3535 20.5286L16.784 16.0898M8.1383 7.34731L13.1918 2.17551C13.8218 1.53074 14.859 1.53074 15.489 2.17551L21.8916 8.72792C22.506 9.35669 22.5006 10.3626 21.8796 10.9848L16.784 16.0898M8.1383 7.34731L16.784 16.0898" stroke="black" stroke-width="2" stroke-linecap="round" stroke-linejoin="round"/>
<path d="M21.8932 8.72867L15.4882 2.17368C14.8588 1.52962 13.823 1.52881 13.1927 2.17191L7.60675 7.87085C6.99274 8.49729 6.99497 9.50051 7.61176 10.1242L14.0084 16.5924C14.6352 17.2263 15.6583 17.2283 16.2876 16.597L21.882 10.9848C22.5023 10.3625 22.5073 9.35714 21.8932 8.72867Z" fill="#FF7575" stroke="black" stroke-width="2" stroke-linecap="round" stroke-linejoin="round"/>
</svg>
