<svg width="44" height="48" viewBox="0 0 44 48" fill="none" xmlns="http://www.w3.org/2000/svg">
<path d="M33.8698 46.3935H9.2063C7.64722 43.7325 5.36405 39.4324 3.63265 35.2616C1.95559 31.2216 0.796218 27.3027 1.31398 25.1118C1.70086 23.4748 5.65483 20.1352 12.4948 19.8733H17.4275V15.6169H11.8371V7.10428H17.7564V1.86572H25.6487V7.10428H30.9103V15.6169H25.9776V19.8733H32.2256C35.1852 20.419 41.3675 22.2306 42.4198 25.1118C42.9724 26.6247 41.4939 30.7917 39.4889 35.2616C37.6756 39.3042 35.4315 43.5947 33.8698 46.3935Z" fill="white"/>
<path d="M42.4198 25.1118C41.3675 22.2306 35.1852 20.419 32.2256 19.8733H25.9776M42.4198 25.1118H1.31398M42.4198 25.1118C42.9724 26.6247 41.4939 30.7917 39.489 35.2616M1.31398 25.1118C1.70086 23.4748 5.65483 20.1352 12.4948 19.8733H17.4275M1.31398 25.1118C0.796218 27.3027 1.95559 31.2216 3.63265 35.2616M17.4275 19.8733V15.6169H11.8372V7.10428H17.7564V1.86572H25.6487V7.10428H30.9103V15.6169H25.9776V19.8733M17.4275 19.8733H25.9776M3.63265 35.2616C5.36405 39.4324 7.64722 43.7325 9.2063 46.3935H33.8698C35.4315 43.5947 37.6756 39.3042 39.489 35.2616M3.63265 35.2616C5.99881 36.145 12.2154 37.3819 18.1524 35.2616M39.489 35.2616C36.18 35.7916 28.8451 36.5338 25.9776 35.2616" stroke="black" stroke-width="2.12037" stroke-linecap="round" stroke-linejoin="round"/>
</svg>
