<svg width="1406" height="837" viewBox="0 0 1406 837" fill="none" xmlns="http://www.w3.org/2000/svg">
<path d="M97.5 387.5C190.7 167.9 179.333 92.6667 162 82.5M97.5 387.5C123.333 392.833 202.7 378.9 313.5 280.5C424.3 182.1 461.333 240.5 465.5 310M97.5 387.5C76.9063 436.023 61.8249 476.456 51.0572 510M1314 426C1211.2 492 1182.83 609.833 1181.5 660.5C1181.83 682.167 1189.3 729.6 1216.5 746C1243.7 762.4 1241.5 745.167 1237 734.5M1314 426C1416.8 360 1405.33 162.333 1392.5 101.5M1314 426C1320.67 379.5 1321.7 278.2 1272.5 245C1223.3 211.8 1252 175.167 1272.5 161M1135 195C1205.2 107.5 1181.5 94.6667 1181.5 82.5M1135 195C1130.83 212.667 1134.3 258.4 1181.5 300C1203.69 319.554 1188.45 358.509 1159.11 400.484M1135 195C1104.46 233.062 1084.33 277.884 1070.59 325.5M350 488C345.889 504.834 343.351 528.722 348.307 548M639 578.5C605.4 594.5 614 639.833 622.5 660.5C628.5 674.5 647.4 711.2 675 746C702.6 780.8 666.5 793 622.5 804.5M639 578.5C672.6 562.5 677 516.833 675 496M639 578.5C617.833 536.167 570.5 465.7 550.5 522.5C530.5 579.3 501.167 551.5 489 530.5M720.5 400.484C738.981 409.85 760.659 418.468 786 426C959.6 477.6 937.167 556.833 903 613.5C889.833 631.833 859.1 653 885.5 705C911.9 757 898.833 786.833 885.5 781M720.5 400.484C612.375 345.687 613.708 265.289 631.5 227C650.784 185.5 675.5 101.4 611.5 3M720.5 400.484C727.833 359.323 765.2 272.9 856 256.5C946.8 240.1 912.5 214.333 884 203.5M51.0572 510C13.0938 628.264 28.7461 660.5 45.5 660.5C75 660.5 136.725 680 127.5 725.5C114.93 787.5 136.5 852 167 804.5M51.0572 510C32.7048 489.167 -1.79996 423.1 7.00004 325.5C15.8 227.9 45 249.167 58.5 272M1039.54 530.5C1035.88 577.838 1035.01 658.966 1029 697C1026.08 715.5 1037.03 751.9 1064.5 757.5C1091.97 763.1 1075.95 793.5 1064.5 808M1039.54 530.5C1041.91 499.947 1044.6 468.266 1048.67 436.5M1039.54 530.5C1056.35 515.57 1076.63 496.24 1096.84 475M348.307 548C339.038 558.333 314.8 567.7 292 522.5C269.2 477.3 228.833 496.333 211.5 511.5M348.307 548C351.977 562.272 359.753 574.017 374.039 578.5M374.039 578.5C381.914 580.971 391.767 581.235 404 578.5C468.4 564.1 468.167 627.167 460 660.5C453.833 676.667 434 716.4 404 746C374 775.6 391.5 803.333 404 813.5M374.039 578.5C395.359 558.505 434.6 506.713 421 459.5C407.4 412.287 435.333 400.484 451 400.484M1070.59 325.5C1092.63 330.823 1141.2 353.271 1159.11 400.484M1070.59 325.5C1060.21 361.476 1053.48 399.047 1048.67 436.5M1159.11 400.484C1141.7 425.4 1119.31 451.381 1096.84 475M1048.67 436.5C1059.34 437.667 1083.91 447 1096.84 475M58.5 734.5L143.5 631.5L138 682.5L146 728.5L109.5 749L97.5 808L140.5 773L167 770M404 705L436 682.5L474.5 679L427.5 657L444.5 635L421 613.5M613 725.5L675 686.5L660.5 759.5L666.5 836.5M856 660.5H894L856 686.5M995.165 648L1030.42 686.5M1065.67 725L1030.42 686.5M995.165 725L1030.42 686.5M1065.67 648L1030.42 686.5M1167.5 613.5L1216.5 638L1155 660.5L1216.5 697L1189.85 708L1159.11 697L1145 712.5V731" stroke="#5C5C5C" stroke-opacity="0.3" stroke-width="10"/>
</svg>
