<svg width="616" height="398" viewBox="0 0 616 398" fill="none" xmlns="http://www.w3.org/2000/svg">
<path d="M41.7944 246.609C72.3201 246.609 77.0717 266.764 75.6318 276.842C70.5922 290.279 57.9212 316.145 47.554 312.114C37.1867 308.083 24.9957 274.443 20.196 258.126C4.11725 246.129 -14.0734 221.415 41.7944 218.536M106.589 222.855C126.463 215.988 163.298 218.178 200.902 253.187M241.572 384.363C268.081 386.778 271.647 374.291 270.017 367.541C262.926 348.218 255.359 331.269 247.495 316.433M241.572 384.363C240.757 384.288 239.919 384.2 239.059 384.097C242.659 358.183 234.596 314.129 173.544 345.226L92.1905 294.838M241.572 384.363C228.976 392.432 199.03 402.093 180.024 376.179M247.495 316.433C232.628 288.387 216.697 267.892 200.902 253.187M247.495 316.433L270.017 314.089M276.496 246.609H330.492C420.943 257.892 468.225 267.496 486.72 275.54M276.496 246.609L438.484 218.536C437.524 174.866 418.614 95.8765 350.651 129.277C330.012 86.8066 306.59 2.29849 378.009 4.02609C449.427 5.75368 447.123 61.6126 418.326 97.6041M276.496 246.609L200.902 253.187M276.496 246.609C310.574 235.812 340.428 215.081 187.223 218.536L180.024 214.937C215.541 212.777 285.568 198.38 281.536 158.07C285.616 124.238 280.96 55.8539 229.7 52.9746M486.72 275.54C510.077 285.698 487.525 293.367 448.03 298.787M486.72 275.54L540.716 284.919M601.912 114.88C607.671 107.394 612.231 76.2491 611.991 64.4919L593.992 52.9746L581.033 80.3282L566.634 52.9746L540.716 68.8109C549.356 36.1786 558.571 -16.993 526.318 31.3797C494.064 79.7523 551.276 114.4 583.913 125.678L559.435 230.773L486.72 227.174L583.913 268.204L570.234 275.54C612.855 296.381 575.994 291.81 552.236 286.92L540.716 284.919M494.64 201.98L526.318 125.678L552.236 154.471L519.838 165.268L581.033 192.622L529.197 199.1M338.412 154.471L313.934 209.898M363.61 37.8582V88.9661L372.249 64.4919H378.009L387.368 31.3797L397.447 88.9661M424.805 301.539L414.726 275.54L387.368 286.92L378.009 268.204L350.651 286.92V268.204L313.934 294.838L320.857 258.126L286.434 298.461V258.126L267.356 298.461L264.038 261.55H229.7L253.458 273.162L243.716 285.19L254.499 293.07V304.682M424.805 301.539L444.964 279.721M424.805 301.539C422.671 301.759 420.51 301.973 418.326 302.183M424.805 301.539C432.997 300.696 440.798 299.779 448.03 298.787M229.7 52.9746C253.458 38.8179 300.399 38.1461 298.095 148.712C326.893 39.8737 264.497 28.0205 229.7 35.6987V52.9746ZM195.863 190.462C192.983 173.906 200.902 160.229 211.701 151.591C220.341 144.681 229.22 124.238 232.58 114.88L200.902 134.316L199.462 141.514C192.023 145.593 177.432 149.288 178.584 131.436C179.736 113.584 184.823 105.762 187.223 104.083C189.623 92.3254 196.583 67.2273 205.222 60.8927L208.822 35.6987L214.581 44.3366M210.952 90.2647L213.141 85.367M253.458 121.359C252.018 135.995 246.547 167.284 236.18 175.346M240.499 139.354H259.938M229.7 159.51L253.458 171.027M51.6944 209.898L62.8922 226.712L80.7258 213.026L97.7299 233.348M91.0941 145.839C89.4352 136.054 74.9195 113.924 67.869 104.083C82.1359 104.083 102.292 117.543 110.587 124.273M91.0941 145.839C92.7531 155.624 77.9609 168.164 70.3574 173.211L80.7258 190.462C87.4862 184.712 104.432 171.027 108.098 171.027M91.0941 145.839H103.951M108.098 171.027C112.681 171.027 196.022 220.491 136.715 148.327M108.098 171.027V158.07M136.715 148.327L145.01 110.172L110.587 124.273M136.715 148.327L119.711 151.591M110.587 124.273L114.734 139.354M44.2292 273.162C46.7176 272.851 51.6944 273.15 51.6944 276.842M200.902 359.842C205.462 359.529 214.005 360.63 211.701 367.541M298.876 376.179C347.4 384.281 425.204 387.048 348.229 333.299C343.252 329.824 331.474 334.463 345.741 346.156M352.377 351.547C360.256 359.842 370.625 373.528 347.4 364.404M339.52 364.404C332.331 364.68 316.461 364.57 310.488 361.915M394.115 374.772C447.063 377.332 530.894 372.038 440.98 338.276C437.247 336.874 431.773 341.428 448.03 352.377M451.763 355.694L459.228 362.33M431.441 354.035C443.883 360.671 447.616 366.063 424.805 364.404M491.727 374.772C534.03 376.155 609.926 391.776 557.67 304.682C555.38 300.865 553.795 325.999 559.435 356.524M543.569 358.183C544.26 355.28 545.228 343.833 543.569 341.179C541.91 338.524 542.878 324.175 543.569 322.101M502.096 362.33C503.478 361.362 512.891 363.154 518.685 360.671C524.491 358.183 532.371 362.33 532.371 362.33M380.578 305.2C363.806 306.31 346.728 307.172 330.492 307.795L320.857 308.798M380.578 305.2L397.447 336.617L418.326 302.183M380.578 305.2C393.519 304.343 406.278 303.339 418.326 302.183M448.03 298.787L486.72 338.276L491.727 313.806L517.441 327.078L519.838 307.795L536.104 304.682L540.716 284.919M270.017 314.089L286.434 342.423L298.876 333.299L317.954 338.276L320.857 308.798M270.017 314.089L320.857 308.798M463 171.027C470.746 169.808 482.79 155.93 469 110.172C455.21 64.4141 475.068 22.6582 486.72 7.5M175.704 60.8927L179.304 68.091L187.223 52.9746V43.6168L175.704 60.8927ZM118.467 237.495C134.214 241.013 168.283 250.064 178.584 258.126C188.885 266.189 162.428 273.095 147.913 275.54L118.467 237.495ZM166.161 286.92L192.704 275.54C196.637 279.242 205.366 289.624 208.822 301.539C212.277 313.454 181.821 296.757 166.161 286.92Z" stroke="url(#paint0_linear_13_323)" stroke-width="8"/>
<defs>
<linearGradient id="paint0_linear_13_323" x1="4" y1="254.5" x2="121.5" y2="4" gradientUnits="userSpaceOnUse">
<stop stop-color="#0029FF"/>
<stop offset="1" stop-color="#FFF500"/>
</linearGradient>
</defs>
</svg>
