<svg width="462" height="347" viewBox="0 0 462 347" fill="none" xmlns="http://www.w3.org/2000/svg">
<path d="M-66.2056 225.609C-35.6799 225.609 -30.9283 245.764 -32.3682 255.842C-37.4078 269.279 -50.0788 295.145 -60.446 291.114C-70.8133 287.083 -83.0043 253.443 -87.804 237.126C-103.883 225.129 -122.073 200.415 -66.2056 197.536M-1.41061 201.855C18.4634 194.988 55.2979 197.178 92.9022 232.187M133.572 363.363C160.081 365.778 163.647 353.291 162.017 346.541C154.926 327.218 147.359 310.269 139.495 295.433M133.572 363.363C132.757 363.288 131.919 363.2 131.059 363.097C134.659 337.183 126.596 293.129 65.5443 324.226L-15.8095 273.838M133.572 363.363C120.976 371.432 91.0304 381.093 72.0238 355.179M139.495 295.433C124.628 267.387 108.697 246.892 92.9022 232.187M139.495 295.433L162.017 293.089M168.496 225.609H222.492C312.943 236.892 360.225 246.496 378.72 254.54M168.496 225.609L330.484 197.536C329.524 153.866 310.614 74.8765 242.651 108.277C222.012 65.8066 198.59 -18.7015 270.009 -16.9739C341.427 -15.2463 339.123 40.6126 310.326 76.6041M168.496 225.609L92.9022 232.187M168.496 225.609C202.574 214.812 232.428 194.081 79.2233 197.536L72.0238 193.937C107.541 191.777 177.568 177.38 173.536 137.07C177.616 103.238 172.96 34.8539 121.7 31.9746M378.72 254.54C402.077 264.698 379.525 272.367 340.03 277.787M378.72 254.54L432.716 263.919M493.912 93.8801C499.671 86.3938 504.231 55.2491 503.991 43.4919L485.992 31.9746L473.033 59.3282L458.634 31.9746L432.716 47.8109C441.356 15.1786 450.571 -37.993 418.318 10.3797C386.064 58.7523 443.276 93.4002 475.913 104.678L451.435 209.773L378.72 206.174L475.913 247.204L462.234 254.54C504.855 275.381 467.994 270.81 444.236 265.92L432.716 263.919M386.64 180.98L418.318 104.678L444.236 133.471L411.838 144.268L473.033 171.622L421.197 178.1M230.412 133.471L205.934 188.898M255.61 16.8582V67.9661L264.249 43.4919H270.009L279.368 10.3797L289.447 67.9661M316.805 280.539L306.726 254.54L279.368 265.92L270.009 247.204L242.651 265.92V247.204L205.934 273.838L212.857 237.126L178.434 277.461V237.126L159.356 277.461L156.038 240.55H121.7L145.458 252.162L135.716 264.19L146.499 272.07V283.682M316.805 280.539L336.964 258.721M316.805 280.539C314.671 280.759 312.51 280.973 310.326 281.183M316.805 280.539C324.997 279.696 332.798 278.779 340.03 277.787M121.7 31.9746C145.458 17.8179 192.399 17.1461 190.095 127.712C218.893 18.8737 156.497 7.02046 121.7 14.6987V31.9746ZM87.8626 169.462C84.9828 152.906 92.9022 139.229 103.701 130.591C112.341 123.681 121.22 103.238 124.58 93.8801L92.9022 113.316L91.4623 120.514C84.0229 124.593 69.432 128.288 70.5839 110.436C71.7358 92.5844 76.8234 84.7622 79.2233 83.0826C81.6231 71.3254 88.5826 46.2273 97.2219 39.8927L100.822 14.6987L106.581 23.3366M102.952 69.2647L105.141 64.367M145.458 100.359C144.018 114.995 138.547 146.284 128.18 154.346M132.499 118.354H151.938M121.7 138.51L145.458 150.027M-56.3056 188.898L-45.1078 205.712L-27.2742 192.026L-10.2701 212.348M-16.9059 124.839C-18.5648 115.054 -33.0805 92.9244 -40.131 83.0826C-25.8641 83.0826 -5.70805 96.5428 2.58663 103.273M-16.9059 124.839C-15.2469 134.624 -30.0391 147.164 -37.6426 152.211L-27.2742 169.462C-20.5138 163.712 -3.56771 150.027 0.0982285 150.027M-16.9059 124.839H-4.04911M0.0982285 150.027C4.68065 150.027 88.0218 199.491 28.7149 127.327M0.0982285 150.027V137.07M28.7149 127.327L37.0096 89.1719L2.58663 103.273M28.7149 127.327L11.7108 130.591M2.58663 103.273L6.73397 118.354M-63.7708 252.162C-61.2824 251.851 -56.3056 252.15 -56.3056 255.842M92.9022 338.842C97.4619 338.529 106.005 339.63 103.701 346.541M190.876 355.179C239.4 363.281 317.204 366.048 240.229 312.299C235.252 308.824 223.474 313.463 237.741 325.156M244.377 330.547C252.256 338.842 262.625 352.528 239.4 343.404M231.52 343.404C224.331 343.68 208.461 343.57 202.488 340.915M286.115 353.772C339.063 356.332 422.894 351.038 332.98 317.276C329.247 315.874 323.773 320.428 340.03 331.377M343.763 334.694L351.228 341.33M323.441 333.035C335.883 339.671 339.616 345.063 316.805 343.404M383.727 353.772C426.03 355.155 501.926 370.776 449.67 283.682C447.38 279.865 445.795 304.999 451.435 335.524M435.569 337.183C436.26 334.28 437.228 322.833 435.569 320.179C433.91 317.524 434.878 303.175 435.569 301.101M394.096 341.33C395.478 340.362 404.891 342.154 410.685 339.671C416.491 337.183 424.371 341.33 424.371 341.33M272.578 284.2C255.806 285.31 238.728 286.172 222.492 286.795L212.857 287.798M272.578 284.2L289.447 315.617L310.326 281.183M272.578 284.2C285.519 283.343 298.278 282.339 310.326 281.183M340.03 277.787L378.72 317.276L383.727 292.806L409.441 306.078L411.838 286.795L428.104 283.682L432.716 263.919M162.017 293.089L178.434 321.423L190.876 312.299L209.954 317.276L212.857 287.798M162.017 293.089L212.857 287.798M355 150.027C362.746 148.808 374.79 134.93 361 89.1719C347.21 43.4141 367.068 1.6582 378.72 -13.5M67.7041 39.8927L71.3039 47.091L79.2233 31.9746V22.6168L67.7041 39.8927ZM10.4666 216.495C26.2137 220.013 60.2833 229.064 70.5839 237.126C80.8846 245.189 54.4284 252.095 39.9127 254.54L10.4666 216.495ZM58.161 265.92L84.704 254.54C88.6366 258.242 97.3659 268.624 100.822 280.539C104.277 292.454 73.8211 275.757 58.161 265.92Z" stroke="#201F20" stroke-width="8"/>
</svg>
