<svg width="22" height="22" viewBox="0 0 22 22" fill="none" xmlns="http://www.w3.org/2000/svg">
<path d="M1.29484 20.3104L3.36232 15.4747L15.9614 2.84559L17.5363 1.26695C19.1111 0.74073 21.9459 0.635487 20.686 4.42423L19.1111 6.00288L6.51209 18.632L1.6891 20.704C1.44028 20.8109 1.18838 20.5594 1.29484 20.3104Z" fill="#FFF500"/>
<path d="M15.9614 2.84559L3.36232 15.4747L1.29484 20.3104C1.18838 20.5594 1.44028 20.8109 1.6891 20.704L6.51209 18.632L19.1111 6.00288M15.9614 2.84559L17.5363 1.26695C19.1111 0.74073 21.9459 0.635487 20.686 4.42423L19.1111 6.00288M15.9614 2.84559L19.1111 6.00288" stroke="black" stroke-width="2"/>
<path d="M20.6856 4.42423C21.9455 0.635487 19.1107 0.74073 17.5358 1.26695L15.9609 2.84559L19.1107 6.00288L20.6856 4.42423Z" fill="white" stroke="black" stroke-width="2"/>
</svg>
