<svg width="52" height="50" viewBox="0 0 52 50" fill="none" xmlns="http://www.w3.org/2000/svg">
<path d="M40.4897 10.2037C42.0112 15.4468 48.137 16.7576 50.9264 15.9865C43.5137 22.3947 40.9954 36.7057 40.4897 48.3704H12.3908C11.7764 38.0643 8.98616 25.0339 1.09766 15.9865C3.50668 16.5006 9.18663 14.83 12.2296 10.2037C13.8963 12.0399 16.6069 14.6737 19.1208 14.7221C21.0053 14.7584 22.7792 13.3417 23.92 9.04714L26.2022 1.72223L28.4844 9.04714C29.724 12.9733 31.5461 14.4258 33.4333 14.5513C36.1788 14.7338 39.0621 12.1077 40.4897 10.2037Z" fill="black"/>
<path d="M19.1208 14.7221C16.6069 14.6737 13.8963 12.0399 12.2296 10.2037C9.18663 14.83 3.50668 16.5006 1.09766 15.9865C8.98616 25.0339 11.7764 38.0643 12.3908 48.3704H40.4897C40.9954 36.7057 43.5137 22.3947 50.9264 15.9865C48.137 16.7576 42.0112 15.4468 40.4897 10.2037C39.0621 12.1077 36.1788 14.7338 33.4333 14.5513M19.1208 14.7221C21.0053 14.7584 22.7792 13.3417 23.92 9.04714L26.2022 1.72223L28.4844 9.04714C29.724 12.9733 31.5461 14.4258 33.4333 14.5513M19.1208 14.7221C19.6509 14.9829 20.9231 17.2009 21.7713 23.9861M33.4333 14.5513C32.7265 16.2826 31.419 20.5935 31.843 23.9861" stroke="white" stroke-width="2.12037" stroke-linecap="round" stroke-linejoin="round"/>
</svg>
