<svg width="52" height="50" viewBox="0 0 52 50" fill="none" xmlns="http://www.w3.org/2000/svg">
<path d="M40.4897 10.2268C42.0112 15.4699 48.137 16.7807 50.9264 16.0097C43.5137 22.4179 40.9954 36.7288 40.4897 48.3935H12.3908C11.7764 38.0875 8.98616 25.057 1.09766 16.0097C3.50668 16.5237 9.18663 14.8531 12.2296 10.2268C13.8963 12.0631 16.6069 14.6969 19.1208 14.7452C21.0053 14.7815 22.7792 13.3649 23.92 9.07028L26.2022 1.74536L28.4844 9.07028C29.724 12.9964 31.5461 14.4489 33.4333 14.5744C36.1788 14.7569 39.0621 12.1308 40.4897 10.2268Z" fill="white"/>
<path d="M19.1208 14.7452C16.6069 14.6969 13.8963 12.0631 12.2296 10.2268C9.18663 14.8531 3.50668 16.5237 1.09766 16.0097C8.98616 25.057 11.7764 38.0875 12.3908 48.3935H40.4897C40.9954 36.7288 43.5137 22.4179 50.9264 16.0097C48.137 16.7807 42.0112 15.4699 40.4897 10.2268C39.0621 12.1308 36.1788 14.7569 33.4333 14.5744M19.1208 14.7452C21.0053 14.7815 22.7792 13.3649 23.92 9.07028L26.2022 1.74536L28.4844 9.07028C29.724 12.9964 31.5461 14.4489 33.4333 14.5744M19.1208 14.7452C19.6509 15.0061 20.9231 17.2241 21.7713 24.0093M33.4333 14.5744C32.7265 16.3058 31.419 20.6167 31.843 24.0093" stroke="black" stroke-width="2.12037" stroke-linecap="round" stroke-linejoin="round"/>
</svg>
