<svg width="20" height="20" viewBox="0 0 20 20" fill="none" xmlns="http://www.w3.org/2000/svg">
<path d="M1.25598 12.069C1.81488 11.5323 2.11761 10.7855 2.11761 10.0154C2.11761 9.24527 1.81488 8.52183 1.25598 7.96174C1.16283 7.8684 1.06968 7.79838 0.953241 7.70504C0.79023 7.58835 0.743654 7.37832 0.79023 7.19163C0.976528 6.51486 1.25598 5.86143 1.582 5.25467C1.67515 5.09131 1.86145 4.99797 2.04775 5.0213C2.21076 5.04464 2.3272 5.04464 2.44363 5.04464C4.05047 5.04464 5.35456 3.73778 5.35456 2.15087C5.35456 2.03419 5.35456 1.89417 5.33127 1.75415C5.30799 1.56745 5.40113 1.38076 5.56415 1.28741C6.16962 0.960697 6.82167 0.680655 7.497 0.493961C7.6833 0.447287 7.89289 0.517297 8.00932 0.657318C8.10247 0.774002 8.19562 0.890687 8.26549 0.960697C8.82438 1.49744 9.54629 1.80082 10.3148 1.80082C11.0833 1.80082 11.8285 1.49744 12.3641 0.960697C12.4572 0.86735 12.5271 0.774002 12.6202 0.657318C12.7367 0.493961 12.9463 0.447287 13.1326 0.493961C13.8079 0.703992 14.4599 0.960697 15.0654 1.28741C15.2284 1.38076 15.3216 1.56745 15.2983 1.75415C15.275 1.91751 15.275 2.03419 15.275 2.15087C15.275 3.76112 16.5791 5.04464 18.1859 5.04464C18.3024 5.04464 18.4421 5.04464 18.5818 5.0213C18.7681 4.99797 18.9544 5.09131 19.0476 5.25467C19.3736 5.86143 19.653 6.51486 19.8393 7.19163C19.8859 7.37832 19.8393 7.58835 19.6763 7.70504C19.5366 7.79838 19.4434 7.89173 19.3736 7.96174C18.2325 9.08191 18.2325 10.9255 19.3736 12.069C19.4667 12.1624 19.5599 12.2324 19.6763 12.3257C19.8393 12.4424 19.8859 12.6524 19.8393 12.8391C19.6297 13.5159 19.3736 14.1693 19.0476 14.7761C18.9544 14.9395 18.7681 15.0328 18.5818 15.0095C18.4188 14.9861 18.3024 14.9861 18.1859 14.9861C16.5791 14.9861 15.275 16.293 15.275 17.8799C15.275 17.9966 15.275 18.1366 15.2983 18.2766C15.3216 18.4633 15.2284 18.65 15.0654 18.7434C14.4599 19.0701 13.8079 19.3501 13.1326 19.5368C12.9463 19.5835 12.7367 19.5368 12.6202 19.3734C12.5271 19.2568 12.4339 19.1401 12.3641 19.0701C11.8052 18.5333 11.0833 18.2299 10.3148 18.2299C9.54629 18.2299 8.8011 18.5333 8.26549 19.0701C8.17234 19.1634 8.10247 19.2568 8.00932 19.3734C7.91617 19.4901 7.77645 19.5601 7.63673 19.5601C7.59015 19.5601 7.54358 19.5601 7.497 19.5368C6.82167 19.3268 6.16962 19.0701 5.56415 18.7434C5.40113 18.65 5.30799 18.4633 5.33127 18.2766C5.35456 18.1133 5.35456 17.9966 5.35456 17.8799C5.35456 16.2696 4.05047 14.9861 2.44363 14.9861C2.3272 14.9861 2.18747 14.9861 2.04775 15.0095C1.86145 15.0328 1.67515 14.9395 1.582 14.7761C1.25598 14.1693 0.976528 13.5159 0.79023 12.8391C0.743654 12.6524 0.79023 12.4424 0.953241 12.3257C1.06968 12.2324 1.18612 12.1624 1.25598 12.069ZM2.25734 14.0527H2.46692C4.58608 14.0527 6.30934 15.7796 6.30934 17.8799V18.0899C6.68194 18.2766 7.07783 18.44 7.497 18.58L7.63673 18.44C8.35864 17.7165 9.31342 17.3198 10.3381 17.3198C11.3627 17.3198 12.3175 17.7165 13.0394 18.44L13.1791 18.58C13.575 18.44 13.9709 18.2766 14.3668 18.0899V17.8799C14.3668 15.7562 16.0901 14.0527 18.2092 14.0527H18.4188C18.6051 13.6793 18.7681 13.2825 18.9078 12.8625L18.7681 12.7225C17.2777 11.2289 17.2777 8.80187 18.7681 7.28497L18.9078 7.14495C18.7681 6.74823 18.6051 6.3515 18.4188 5.95478H18.2092C16.0901 5.95478 14.3668 4.22785 14.3668 2.12754V1.91751C13.9942 1.73081 13.5983 1.56745 13.1791 1.42743L13.0394 1.56745C12.3175 2.2909 11.3627 2.68762 10.3381 2.68762C9.31342 2.68762 8.35864 2.2909 7.63673 1.56745L7.497 1.42743C7.10112 1.56745 6.70523 1.73081 6.30934 1.91751V2.12754C6.30934 4.25119 4.58608 5.95478 2.46692 5.95478H2.25734C2.07104 6.32816 1.90803 6.72489 1.7683 7.14495L1.90803 7.28497C2.62994 8.00842 3.02582 8.96523 3.02582 9.99205C3.02582 11.0189 2.62994 11.9757 1.90803 12.6991L1.7683 12.8391C1.90803 13.2825 2.07104 13.6793 2.25734 14.0527ZM10.3148 4.46122C13.3654 4.46122 15.8572 6.95826 15.8572 10.0154C15.8572 13.0725 13.3654 15.5695 10.3148 15.5695C7.26413 15.5695 4.77238 13.0725 4.77238 10.0154C4.77238 6.95826 7.26413 4.46122 10.3148 4.46122ZM10.3148 14.6361C12.8531 14.6361 14.9257 12.5591 14.9257 10.0154C14.9257 7.47167 12.8531 5.39469 10.3148 5.39469C7.77645 5.39469 5.70387 7.47167 5.70387 10.0154C5.70387 12.5591 7.77645 14.6361 10.3148 14.6361Z" fill="white"/>
</svg>
