<svg width="27" height="25" viewBox="0 0 27 25" fill="none" xmlns="http://www.w3.org/2000/svg">
<circle cx="10.6855" cy="13.4419" r="9.68548" stroke="black" stroke-width="2"/>
<path d="M14.6928 0.752953L12.0215 3.42432L9.35008 3.42431L6.67871 0.752943C9.57393 -0.258132 11.8907 -0.243806 14.6928 0.752953Z" fill="black"/>
<path d="M9.32008 15.4711L9.88066 12.7583L19.2958 4.04705L21.6825 6.32083L11.872 15.1872L9.32008 15.4711Z" fill="black"/>
<path d="M21.7368 1.78859L24.1351 4.10425L22.5275 5.5571L20.1917 3.21818L21.7368 1.78859Z" fill="black"/>
<path d="M9.32008 15.4711L9.88066 12.7583L19.2958 4.04705L21.6825 6.32083L11.872 15.1872L9.32008 15.4711Z" stroke="black"/>
<path d="M21.7368 1.78859L24.1351 4.10425L22.5275 5.5571L20.1917 3.21818L21.7368 1.78859Z" stroke="black"/>
</svg>
